<svg xmlns="http://www.w3.org/2000/svg" viewBox="0 0 1200 630" width="1200" height="630">
  <defs>
    <radialGradient id="cg" cx="0%" cy="0%" r="60%">
      <stop offset="0%" stop-color="#66fcf1" stop-opacity="0.12"/>
      <stop offset="100%" stop-color="#66fcf1" stop-opacity="0"/>
    </radialGradient>
    <radialGradient id="ag" cx="100%" cy="100%" r="50%">
      <stop offset="0%" stop-color="#ff9933" stop-opacity="0.15"/>
      <stop offset="100%" stop-color="#ff9933" stop-opacity="0"/>
    </radialGradient>
  </defs>

  <rect width="1200" height="630" fill="#0a1219"/>
  <rect width="1200" height="630" fill="url(#cg)"/>
  <rect width="1200" height="630" fill="url(#ag)"/>

  <!-- Conway-style pixel scatter — bottom 30%, crispEdges -->
  <g shape-rendering="crispEdges" opacity="0.28">
    <rect x="40"  y="449" width="6" height="6" fill="#66fcf1"/>
    <rect x="232" y="449" width="6" height="6" fill="#ff9933"/>
    <rect x="568" y="449" width="6" height="6" fill="#ff9933"/>
    <rect x="712" y="449" width="6" height="6" fill="#66fcf1"/>
    <rect x="880" y="449" width="6" height="6" fill="#ff9933"/>
    <rect x="1120" y="449" width="6" height="6" fill="#66fcf1"/>

    <rect x="88"  y="469" width="6" height="6" fill="#66fcf1"/>
    <rect x="352" y="469" width="6" height="6" fill="#66fcf1"/>
    <rect x="520" y="469" width="6" height="6" fill="#ff9933"/>
    <rect x="688" y="469" width="6" height="6" fill="#66fcf1"/>
    <rect x="1000" y="469" width="6" height="6" fill="#ff9933"/>
    <rect x="1144" y="469" width="6" height="6" fill="#66fcf1"/>

    <rect x="40"  y="489" width="6" height="6" fill="#ff9933"/>
    <rect x="208" y="489" width="6" height="6" fill="#66fcf1"/>
    <rect x="400" y="489" width="6" height="6" fill="#ff9933"/>
    <rect x="664" y="489" width="6" height="6" fill="#66fcf1"/>
    <rect x="856" y="489" width="6" height="6" fill="#ff9933"/>
    <rect x="1024" y="489" width="6" height="6" fill="#66fcf1"/>

    <rect x="160" y="509" width="6" height="6" fill="#ff9933"/>
    <rect x="328" y="509" width="6" height="6" fill="#66fcf1"/>
    <rect x="592" y="509" width="6" height="6" fill="#66fcf1"/>
    <rect x="760" y="509" width="6" height="6" fill="#ff9933"/>
    <rect x="928" y="509" width="6" height="6" fill="#66fcf1"/>
    <rect x="1168" y="509" width="6" height="6" fill="#ff9933"/>

    <rect x="64"  y="529" width="6" height="6" fill="#66fcf1"/>
    <rect x="280" y="529" width="6" height="6" fill="#ff9933"/>
    <rect x="448" y="529" width="6" height="6" fill="#66fcf1"/>
    <rect x="616" y="529" width="6" height="6" fill="#66fcf1"/>
    <rect x="808" y="529" width="6" height="6" fill="#ff9933"/>
    <rect x="1072" y="529" width="6" height="6" fill="#66fcf1"/>

    <rect x="112" y="549" width="6" height="6" fill="#66fcf1"/>
    <rect x="376" y="549" width="6" height="6" fill="#ff9933"/>
    <rect x="544" y="549" width="6" height="6" fill="#66fcf1"/>
    <rect x="736" y="549" width="6" height="6" fill="#66fcf1"/>
    <rect x="976" y="549" width="6" height="6" fill="#ff9933"/>
    <rect x="1120" y="549" width="6" height="6" fill="#66fcf1"/>

    <rect x="40"  y="569" width="6" height="6" fill="#ff9933"/>
    <rect x="232" y="569" width="6" height="6" fill="#66fcf1"/>
    <rect x="496" y="569" width="6" height="6" fill="#ff9933"/>
    <rect x="664" y="569" width="6" height="6" fill="#66fcf1"/>
    <rect x="880" y="569" width="6" height="6" fill="#66fcf1"/>
    <rect x="1048" y="569" width="6" height="6" fill="#ff9933"/>

    <rect x="88"  y="589" width="6" height="6" fill="#66fcf1"/>
    <rect x="304" y="589" width="6" height="6" fill="#ff9933"/>
    <rect x="568" y="589" width="6" height="6" fill="#66fcf1"/>
    <rect x="784" y="589" width="6" height="6" fill="#ff9933"/>
    <rect x="952" y="589" width="6" height="6" fill="#66fcf1"/>
    <rect x="1144" y="589" width="6" height="6" fill="#66fcf1"/>
  </g>

  <!-- Separator -->
  <line x1="40" y1="439" x2="1160" y2="439" stroke="#66fcf1" stroke-width="1" stroke-opacity="0.18"/>

  <!-- Avatar pixel-grid placeholder (8x8 simplified) -->
  <g shape-rendering="crispEdges" opacity="0.5">
    <rect x="568" y="160" width="64" height="80" fill="none" stroke="#66fcf1" stroke-width="1.5" stroke-opacity="0.35"/>
    <!-- Eyes row -->
    <rect x="580" y="174" width="8" height="8" fill="#0a1219"/>
    <rect x="612" y="174" width="8" height="8" fill="#0a1219"/>
    <!-- Mouth row -->
    <rect x="580" y="206" width="40" height="6" fill="#ff9933"/>
    <!-- Fill rows -->
    <rect x="572" y="166" width="56" height="6" fill="#66fcf1" fill-opacity="0.4"/>
    <rect x="572" y="226" width="56" height="6" fill="#66fcf1" fill-opacity="0.2"/>
    <!-- Body hint -->
    <rect x="548" y="244" width="104" height="6" fill="#66fcf1" fill-opacity="0.18"/>
  </g>

  <!-- Brand mark top-left -->
  <text x="48" y="60" font-family="monospace, system-ui" font-size="22" fill="#66fcf1" font-weight="700" letter-spacing="1">michael.py_</text>
  <line x1="48" y1="72" x2="160" y2="72" stroke="#66fcf1" stroke-width="1" stroke-opacity="0.35"/>

  <!-- Title -->
  <text x="600" y="298" font-family="system-ui, sans-serif" font-size="38" font-weight="700" fill="#ffffff" text-anchor="middle" letter-spacing="-0.5">michael.py — AI Engineer</text>
  <text x="600" y="344" font-family="system-ui, sans-serif" font-size="27" font-weight="400" fill="#66fcf1" text-anchor="middle">building at the OCR + agents intersection</text>

  <!-- Subtitle -->
  <text x="600" y="394" font-family="monospace, system-ui" font-size="16" fill="#ff9933" text-anchor="middle" letter-spacing="2" opacity="0.9">OCR · Document AI · LLM agents · Ho Chi Minh City</text>

  <!-- Bottom-right slug -->
  <text x="1152" y="606" font-family="monospace, system-ui" font-size="15" fill="#66fcf1" text-anchor="end" opacity="0.65">leduy.py / home</text>
</svg>
